<svg width="488" height="118" viewBox="0 0 488 118" fill="none" xmlns="http://www.w3.org/2000/svg">
<rect width="488" height="118" fill="#F5F5F5"/>
<rect x="270" y="4" width="214" height="110" fill="white"/>
<rect x="4" y="4" width="266" height="110" fill="#E7000B"/>
<path d="M43.6047 35C48.458 35 52.378 35.5067 55.3647 36.52C58.4047 37.48 60.618 39.16 62.0047 41.56C63.4447 43.9067 64.1647 47.1867 64.1647 51.4C64.1647 53.96 63.818 56.2267 63.1247 58.2C62.4847 60.12 61.3914 61.6667 59.8447 62.84C58.298 64.0133 56.1914 64.76 53.5247 65.08V65.48C54.4847 65.64 55.4714 66.0133 56.4847 66.6C57.5514 67.1867 58.538 68.0667 59.4447 69.24C60.3514 70.36 61.018 71.88 61.4447 73.8L66.2447 91H53.3647L49.1247 74.2C48.6447 72.3867 47.9247 71.1333 46.9647 70.44C46.058 69.7467 44.778 69.4 43.1247 69.4C39.498 69.4 36.4314 69.4 33.9247 69.4C31.4714 69.3467 29.3914 69.2933 27.6847 69.24C26.0314 69.1867 24.538 69.1333 23.2047 69.08L23.4447 60.2H43.3647C45.498 60.2 47.178 59.9867 48.4047 59.56C49.6847 59.08 50.5647 58.2533 51.0447 57.08C51.578 55.9067 51.8447 54.28 51.8447 52.2C51.8447 50.0667 51.578 48.44 51.0447 47.32C50.5647 46.1467 49.6847 45.3467 48.4047 44.92C47.178 44.44 45.498 44.2 43.3647 44.2C38.3514 44.2 34.1114 44.2267 30.6447 44.28C27.178 44.3333 24.8047 44.4133 23.5247 44.52L22.3247 35.8C24.5647 35.5333 26.6714 35.3467 28.6447 35.24C30.618 35.1333 32.778 35.08 35.1247 35.08C37.4714 35.0267 40.298 35 43.6047 35ZM34.4047 35.8V91H22.3247V35.8H34.4047ZM94.2816 50.44C97.5882 50.44 100.388 50.8933 102.682 51.8C104.975 52.6533 106.708 54.1467 107.882 56.28C109.108 58.36 109.722 61.24 109.722 64.92V91H100.282L98.6016 82.44L97.8016 81.24V64.84C97.8016 62.9733 97.3482 61.6133 96.4416 60.76C95.5882 59.9067 93.9349 59.48 91.4816 59.48C89.4549 59.48 86.9216 59.56 83.8816 59.72C80.8416 59.8267 77.7216 59.9867 74.5216 60.2L73.4016 52.36C75.3216 51.9867 77.5349 51.6667 80.0416 51.4C82.5482 51.1333 85.0549 50.92 87.5616 50.76C90.0682 50.5467 92.3082 50.44 94.2816 50.44ZM104.842 66.68L104.762 73.32L87.1616 73.4C85.7216 73.4 84.6816 73.7467 84.0416 74.44C83.4549 75.1333 83.1616 76.0667 83.1616 77.24V79.16C83.1616 80.4933 83.5349 81.5333 84.2816 82.28C85.0282 82.9733 86.2282 83.32 87.8816 83.32C89.2682 83.32 90.7616 83.0267 92.3616 82.44C94.0149 81.8533 95.6416 81.0267 97.2416 79.96C98.8416 78.8933 100.255 77.64 101.482 76.2V81.32C101.002 82.12 100.282 83.1333 99.3216 84.36C98.4149 85.5333 97.2416 86.7067 95.8016 87.88C94.3616 89 92.6816 89.96 90.7616 90.76C88.8416 91.56 86.6549 91.96 84.2016 91.96C81.8016 91.96 79.6416 91.5333 77.7216 90.68C75.8016 89.8267 74.2816 88.5733 73.1616 86.92C72.0416 85.2667 71.4816 83.2133 71.4816 80.76V76.68C71.4816 73.5333 72.5482 71.08 74.6816 69.32C76.8149 67.56 79.7482 66.68 83.4816 66.68H104.842ZM131.267 51.48V89.16C131.267 91.56 130.84 93.88 129.987 96.12C129.187 98.4133 128.013 100.467 126.467 102.28C124.973 104.093 123.16 105.56 121.027 106.68L114.467 101.56C116.28 99.5333 117.56 97.56 118.307 95.64C119.053 93.72 119.427 91.56 119.427 89.16V51.48H131.267ZM127.827 33.64C130.12 33.64 131.267 34.8133 131.267 37.16V41.48C131.267 43.88 130.12 45.08 127.827 45.08H122.627C120.333 45.08 119.187 43.88 119.187 41.48V37.16C119.187 34.8133 120.333 33.64 122.627 33.64H127.827ZM162.094 50.44C165.401 50.44 168.201 50.8933 170.494 51.8C172.787 52.6533 174.521 54.1467 175.694 56.28C176.921 58.36 177.534 61.24 177.534 64.92V91H168.094L166.414 82.44L165.614 81.24V64.84C165.614 62.9733 165.161 61.6133 164.254 60.76C163.401 59.9067 161.747 59.48 159.294 59.48C157.267 59.48 154.734 59.56 151.694 59.72C148.654 59.8267 145.534 59.9867 142.334 60.2L141.214 52.36C143.134 51.9867 145.347 51.6667 147.854 51.4C150.361 51.1333 152.867 50.92 155.374 50.76C157.881 50.5467 160.121 50.44 162.094 50.44ZM172.654 66.68L172.574 73.32L154.974 73.4C153.534 73.4 152.494 73.7467 151.854 74.44C151.267 75.1333 150.974 76.0667 150.974 77.24V79.16C150.974 80.4933 151.347 81.5333 152.094 82.28C152.841 82.9733 154.041 83.32 155.694 83.32C157.081 83.32 158.574 83.0267 160.174 82.44C161.827 81.8533 163.454 81.0267 165.054 79.96C166.654 78.8933 168.067 77.64 169.294 76.2V81.32C168.814 82.12 168.094 83.1333 167.134 84.36C166.227 85.5333 165.054 86.7067 163.614 87.88C162.174 89 160.494 89.96 158.574 90.76C156.654 91.56 154.467 91.96 152.014 91.96C149.614 91.96 147.454 91.5333 145.534 90.68C143.614 89.8267 142.094 88.5733 140.974 86.92C139.854 85.2667 139.294 83.2133 139.294 80.76V76.68C139.294 73.5333 140.361 71.08 142.494 69.32C144.627 67.56 147.561 66.68 151.294 66.68H172.654ZM214.359 50.44C221.826 50.44 225.559 54.0933 225.559 61.4V91H213.719V65.08C213.719 63.32 213.399 62.12 212.759 61.48C212.119 60.7867 211.026 60.44 209.479 60.44C207.772 60.44 206.012 60.7867 204.199 61.48C202.386 62.12 200.146 63.1333 197.479 64.52L196.919 57.88C199.746 55.48 202.626 53.64 205.559 52.36C208.546 51.08 211.479 50.44 214.359 50.44ZM196.359 51.48L197.719 59.32L198.679 60.36V91H186.839V51.48H196.359ZM246.966 51.48V91H235.206V51.48H246.966ZM243.686 34.04C246.033 34.04 247.206 35.24 247.206 37.64V41.88C247.206 44.28 246.033 45.48 243.686 45.48H238.566C236.219 45.48 235.046 44.28 235.046 41.88V37.64C235.046 35.24 236.219 34.04 238.566 34.04H243.686Z" fill="white"/>
<path d="M486 2V116H2V2H486Z" stroke="#E7000B" stroke-width="4"/>
<path d="M321.576 35.8C322.59 35.8 323.47 36.0933 324.216 36.68C325.016 37.2667 325.55 38.04 325.816 39L341.816 91H329.336L318.056 50.44C317.843 49.5333 317.63 48.6267 317.416 47.72C317.203 46.76 317.016 45.8533 316.856 45H314.696C314.536 45.8533 314.35 46.76 314.136 47.72C313.976 48.6267 313.763 49.5333 313.496 50.44L302.216 91H289.656L305.736 39C306.003 38.04 306.51 37.2667 307.256 36.68C308.056 36.0933 308.963 35.8 309.976 35.8H321.576ZM330.056 67.24V76.44H301.416V67.24H330.056ZM358.322 51.48V77.48C358.322 79.1333 358.669 80.3067 359.362 81C360.109 81.6933 361.282 82.04 362.882 82.04C364.535 82.04 366.162 81.7467 367.762 81.16C369.415 80.52 371.442 79.5333 373.842 78.2L374.802 84.68C371.922 87.1867 369.095 89.0533 366.322 90.28C363.549 91.5067 360.695 92.12 357.762 92.12C350.242 92.12 346.482 88.44 346.482 81.08V51.48H358.322ZM384.482 51.48V91H375.122L373.762 83.24L372.642 82.12V51.48H384.482ZM409.584 40.52V78.36C409.584 79.8 409.904 80.84 410.544 81.48C411.237 82.0667 412.357 82.36 413.904 82.36H419.024L420.304 90.36C419.344 90.68 418.17 90.9467 416.784 91.16C415.397 91.4267 414.01 91.6133 412.624 91.72C411.237 91.88 410.064 91.96 409.104 91.96C405.53 91.96 402.73 91 400.704 89.08C398.73 87.16 397.744 84.4667 397.744 81L397.664 40.52H409.584ZM420.624 51.48V59.24H390.784V51.88L398.464 51.48H420.624ZM445.756 50.44C450.716 50.44 454.69 51.1333 457.676 52.52C460.663 53.8533 462.796 56.04 464.076 59.08C465.41 62.12 466.076 66.2 466.076 71.32C466.076 76.3333 465.41 80.36 464.076 83.4C462.796 86.44 460.663 88.6267 457.676 89.96C454.69 91.2933 450.716 91.96 445.756 91.96C440.85 91.96 436.876 91.2933 433.836 89.96C430.85 88.6267 428.69 86.44 427.356 83.4C426.023 80.36 425.356 76.3333 425.356 71.32C425.356 66.2 426.023 62.12 427.356 59.08C428.69 56.04 430.85 53.8533 433.836 52.52C436.876 51.1333 440.85 50.44 445.756 50.44ZM445.756 59.08C443.73 59.08 442.13 59.4267 440.956 60.12C439.783 60.8133 438.956 62.04 438.476 63.8C437.996 65.56 437.756 68.0667 437.756 71.32C437.756 74.52 437.996 77 438.476 78.76C438.956 80.52 439.783 81.7467 440.956 82.44C442.13 83.08 443.73 83.4 445.756 83.4C447.783 83.4 449.383 83.08 450.556 82.44C451.73 81.7467 452.556 80.52 453.036 78.76C453.516 77 453.756 74.52 453.756 71.32C453.756 68.0667 453.516 65.56 453.036 63.8C452.556 62.04 451.73 60.8133 450.556 60.12C449.383 59.4267 447.783 59.08 445.756 59.08Z" fill="#E7000B"/>
</svg>
