<svg width="80" height="106" viewBox="0 0 80 106" fill="none" xmlns="http://www.w3.org/2000/svg">
<rect width="80" height="106" fill="#F5F5F5"/>
<rect width="80" height="80" fill="#E7000B"/>
<path d="M40.9016 12C45.7549 12 49.6749 12.5067 52.6616 13.52C55.7016 14.48 57.9149 16.16 59.3016 18.56C60.7416 20.9067 61.4616 24.1867 61.4616 28.4C61.4616 30.96 61.1149 33.2267 60.4216 35.2C59.7816 37.12 58.6882 38.6667 57.1416 39.84C55.5949 41.0133 53.4882 41.76 50.8216 42.08V42.48C51.7816 42.64 52.7682 43.0133 53.7816 43.6C54.8482 44.1867 55.8349 45.0667 56.7416 46.24C57.6482 47.36 58.3149 48.88 58.7416 50.8L63.5416 68H50.6616L46.4216 51.2C45.9416 49.3867 45.2216 48.1333 44.2616 47.44C43.3549 46.7467 42.0749 46.4 40.4216 46.4C36.7949 46.4 33.7282 46.4 31.2216 46.4C28.7682 46.3467 26.6882 46.2933 24.9816 46.24C23.3282 46.1867 21.8349 46.1333 20.5016 46.08L20.7416 37.2H40.6616C42.7949 37.2 44.4749 36.9867 45.7016 36.56C46.9816 36.08 47.8616 35.2533 48.3416 34.08C48.8749 32.9067 49.1416 31.28 49.1416 29.2C49.1416 27.0667 48.8749 25.44 48.3416 24.32C47.8616 23.1467 46.9816 22.3467 45.7016 21.92C44.4749 21.44 42.7949 21.2 40.6616 21.2C35.6482 21.2 31.4082 21.2267 27.9416 21.28C24.4749 21.3333 22.1016 21.4133 20.8216 21.52L19.6216 12.8C21.8616 12.5333 23.9682 12.3467 25.9416 12.24C27.9149 12.1333 30.0749 12.08 32.4216 12.08C34.7682 12.0267 37.5949 12 40.9016 12ZM31.7016 12.8V68H19.6216V12.8H31.7016Z" fill="white"/>
<path d="M18.2166 88.44C18.5206 88.44 18.7846 88.528 19.0086 88.704C19.2486 88.88 19.4086 89.112 19.4886 89.4L24.2886 105H20.5446L17.1606 92.832C17.0966 92.56 17.0326 92.288 16.9686 92.016C16.9046 91.728 16.8486 91.456 16.8006 91.2H16.1526C16.1046 91.456 16.0486 91.728 15.9846 92.016C15.9366 92.288 15.8726 92.56 15.7926 92.832L12.4086 105H8.64062L13.4646 89.4C13.5446 89.112 13.6966 88.88 13.9206 88.704C14.1606 88.528 14.4326 88.44 14.7366 88.44H18.2166ZM20.7606 97.872V100.632H12.1686V97.872H20.7606ZM39.0603 88.44V98.4C39.0603 100.08 38.8523 101.432 38.4363 102.456C38.0203 103.464 37.3323 104.2 36.3723 104.664C35.4283 105.112 34.1643 105.336 32.5803 105.336C30.9003 105.336 29.5563 105.112 28.5483 104.664C27.5403 104.2 26.8123 103.464 26.3643 102.456C25.9163 101.432 25.6923 100.08 25.6923 98.4V88.44H29.3643V98.4C29.3643 99.44 29.4523 100.256 29.6283 100.848C29.8203 101.424 30.1403 101.832 30.5883 102.072C31.0363 102.312 31.6363 102.432 32.3883 102.432C33.1403 102.432 33.7323 102.312 34.1643 102.072C34.6123 101.832 34.9243 101.424 35.1003 100.848C35.2923 100.256 35.3883 99.44 35.3883 98.4V88.44H39.0603ZM49.6574 88.44V105H45.9854V88.44H49.6574ZM54.6494 88.44V91.32H41.0174V88.44H54.6494ZM63.0919 88.104C64.4039 88.104 65.5159 88.248 66.4279 88.536C67.3399 88.808 68.0679 89.272 68.6119 89.928C69.1719 90.568 69.5799 91.448 69.8359 92.568C70.0919 93.672 70.2199 95.056 70.2199 96.72C70.2199 98.384 70.0919 99.776 69.8359 100.896C69.5799 102 69.1719 102.88 68.6119 103.536C68.0679 104.176 67.3399 104.64 66.4279 104.928C65.5159 105.2 64.4039 105.336 63.0919 105.336C61.7799 105.336 60.6679 105.2 59.7559 104.928C58.8439 104.64 58.1079 104.176 57.5479 103.536C56.9879 102.88 56.5799 102 56.3239 100.896C56.0679 99.776 55.9399 98.384 55.9399 96.72C55.9399 95.056 56.0679 93.672 56.3239 92.568C56.5799 91.448 56.9879 90.568 57.5479 89.928C58.1079 89.272 58.8439 88.808 59.7559 88.536C60.6679 88.248 61.7799 88.104 63.0919 88.104ZM63.0919 91.008C62.2439 91.008 61.5799 91.176 61.0999 91.512C60.6359 91.848 60.2999 92.432 60.0919 93.264C59.8999 94.08 59.8039 95.232 59.8039 96.72C59.8039 98.192 59.8999 99.344 60.0919 100.176C60.2999 101.008 60.6359 101.592 61.0999 101.928C61.5799 102.264 62.2439 102.432 63.0919 102.432C63.9239 102.432 64.5719 102.264 65.0359 101.928C65.5159 101.592 65.8519 101.008 66.0439 100.176C66.2519 99.344 66.3559 98.192 66.3559 96.72C66.3559 95.232 66.2519 94.08 66.0439 93.264C65.8519 92.432 65.5159 91.848 65.0359 91.512C64.5719 91.176 63.9239 91.008 63.0919 91.008Z" fill="#E7000B"/>
</svg>
